<svg width="221.00000000000003" height="47.47274206672091" viewBox="0 0 409.6666666666667 88" class="css-1j8o68f"><defs id="SvgjsDefs4373"><linearGradient id="SvgjsLinearGradient4380"><stop id="SvgjsStop4381" stop-color="#00ff8f" offset="0"></stop><stop id="SvgjsStop4382" stop-color="#00a1ff" offset="1"></stop></linearGradient><linearGradient id="SvgjsLinearGradient4383"><stop id="SvgjsStop4384" stop-color="#00ddff" offset="0"></stop><stop id="SvgjsStop4385" stop-color="#ff00d4" offset="1"></stop></linearGradient></defs><g id="SvgjsG4374" featurekey="symbolContainer" transform="matrix(1,0,0,1,0,0)" fill="url(#SvgjsLinearGradient4380)"><rect width="98" height="88" rx="8"></rect></g><g id="SvgjsG4375" featurekey="symbolFeature-0" transform="matrix(1.215277777777778,0,0,1.215277777777778,17.569444444444443,12.569444444444445)" fill="#f9e1cf"><g xmlns="http://www.w3.org/2000/svg"><g><g><path d="M26,50c-4.5957031,0-7-12.0737305-7-24s2.4042969-24,7-24s7,12.0737305,7,24S30.5957031,50,26,50z M26,4     c-2.0390625,0-5,8.5703125-5,22s2.9609375,22,5,22s5-8.5703125,5-22S28.0390625,4,26,4z"></path></g><g><path d="M11.3330078,43.8183594c-0.96875,0-1.7373047-0.2822266-2.3027344-0.8476563     c-1.5292969-1.5283203-0.9882813-4.5483398,1.6074219-8.9760742c2.3115234-3.9443359,6.0097656-8.5415039,10.4130859-12.9443359     c4.4023438-4.402832,9-8.1005859,12.9443359-10.4130859c4.4296875-2.5961914,7.4472656-3.1357422,8.9755859-1.6074219     C44.5,10.5581055,43.9589844,13.578125,41.3632813,18.0058594c-2.3125,3.9443359-6.0107422,8.5415039-10.4130859,12.9438477     c-4.4033203,4.402832-9,8.1010742-12.9443359,10.4130859C15.2158203,42.9985352,12.984375,43.8183594,11.3330078,43.8183594z      M40.6552734,10.1918945c-0.9921875,0-2.78125,0.4902344-5.6494141,2.1708984     c-3.8007813,2.2285156-8.2548828,5.815918-12.5410156,10.1015625     c-4.2861328,4.2861328-7.8730469,8.7397461-10.1015625,12.5415039c-2.4707031,4.2148438-2.3691406,6.1005859-1.9189453,6.5507813     s2.3339844,0.5527344,6.5507813-1.9194336c3.8007813-2.2285156,8.2548828-5.815918,12.5410156-10.1015625     s7.8730469-8.7397461,10.1015625-12.5415039c2.4707031-4.2148438,2.3691406-6.1005859,1.9189453-6.550293     C41.4130859,10.300293,41.1220703,10.1918945,40.6552734,10.1918945z"></path></g><g><path d="M26,33c-11.9267578,0-24-2.4042969-24-7s12.0732422-7,24-7s24,2.4042969,24,7S37.9267578,33,26,33z M26,21     c-13.4296875,0-22,2.9614258-22,5s8.5703125,5,22,5s22-2.9614258,22-5S39.4296875,21,26,21z"></path></g><g><path d="M40.6679688,43.8183594c-1.6513672,0-3.8828125-0.8198242-6.6728516-2.4555664     c-3.9443359-2.3120117-8.5410156-6.0102539-12.9443359-10.4130859     c-4.4023438-4.4023438-8.1005859-8.9995117-10.4130859-12.9438477c-2.5957031-4.4277344-3.1367188-7.4477539-1.6074219-8.9760742     c1.5292969-1.5307617,4.5498047-0.9873047,8.9755859,1.6074219c3.9443359,2.3125,8.5419922,6.0102539,12.9443359,10.4130859     c4.4033203,4.402832,8.1015625,9,10.4130859,12.9443359c2.5957031,4.4277344,3.1367188,7.4477539,1.6074219,8.9760742     C42.4052734,43.5361328,41.6367188,43.8183594,40.6679688,43.8183594z M11.3457031,10.1918945     c-0.4667969,0-0.7578125,0.1083984-0.9013672,0.2519531c-0.4501953,0.449707-0.5517578,2.3354492,1.9189453,6.550293     C14.5917969,20.7958984,18.1787109,25.25,22.4648438,29.5356445s8.7402344,7.8730469,12.5419922,10.1015625     c4.2128906,2.4697266,6.0996094,2.3691406,6.5498047,1.9194336c0.4501953-0.4501953,0.5517578-2.3359375-1.9189453-6.5507813     c-2.2285156-3.8017578-5.8154297-8.2553711-10.1015625-12.5415039C25.25,18.1787109,20.7958984,14.5913086,16.9951172,12.362793     C14.1269531,10.6821289,12.3378906,10.1918945,11.3457031,10.1918945z"></path></g></g><g><path d="M26,29c-1.6542969,0-3-1.3457031-3-3s1.3457031-3,3-3s3,1.3457031,3,3S27.6542969,29,26,29z M26,25    c-0.5517578,0-1,0.4487305-1,1s0.4482422,1,1,1s1-0.4487305,1-1S26.5517578,25,26,25z"></path></g></g></g><g id="SvgjsG4376" featurekey="nameFeature-0" transform="matrix(1.187446030004341,0,0,1.187446030004341,114.15053596149158,19.904240577644536)" fill="url(#SvgjsLinearGradient4383)"><path d="M4.3555 27.266 c1.2695 -5.4492 2.5391 -10.918 3.8086 -16.367 l11.719 0 c7.0117 0 11.914 3.6328 8.6914 11.582 c-0.82031 1.9727 -1.9141 3.5547 -3.1641 4.7852 l1.7773 0 c-3.0664 2.9492 -7.3047 3.9453 -12.188 3.9453 l-2.0313 8.7695 l-9.7266 0 l2.9297 -12.715 l-1.8164 0 z M16.211 18.145 c-0.41016 1.9141 -0.87891 3.8672 -1.3086 5.8594 c4.8633 -0.25391 6.6797 -5.8594 1.3086 -5.8594 z M59.003718750000004 25.683999999999997 c-0.15625 0.625 -0.33203 1.25 -0.56641 1.8945 l2.1289 0 c-2.4805 7.7539 -8.7891 13.379 -17.441 13.379 c-8.9258 0 -12.402 -5.625 -11.27 -13.379 l-2.0703 0 c0.078125 -0.64453 0.17578 -1.2695 0.3125 -1.8945 c2.0703 -8.9258 8.5352 -15.313 17.93 -15.313 c9.1992 0 12.988 6.4453 10.977 15.313 z M50.42971875 27.578 l-2.1094 0 c0.19531 -0.64453 0.39063 -1.2695 0.52734 -1.9336 c2.4805 -10.723 -6.1719 -10.41 -8.5938 0.039063 c-0.13672 0.68359 -0.23438 1.3086 -0.33203 1.8945 l2.1094 0 c-1.0156 8.1641 5.6445 7.9883 8.3984 0 z M63.457075 26.719 l-1.7773 0 l3.6328 -15.957 c3.3984 0 9.5313 -0.33203 14.375 0.3125 c4.2773 0.625 8.418 2.207 7.6953 7.3438 c-0.41016 3.1055 -2.793 6.2891 -5.3711 8.3008 l1.7578 0 c-0.46875 0.35156 -0.9375 0.72266 -1.4453 0.97656 l6.6797 12.383 l-11.719 0 l-4.8828 -9.5508 l-2.168 9.5508 l-9.8438 0 z M73.535375 17.988 l-1.1914 5.0391 c4.707 0 7.3438 -5.0391 1.1914 -5.0391 z M106.46509375 26.719 l-2.9688 13.359 l-9.9023 0 l3.0469 -13.359 l-1.7773 0 l1.9727 -8.5547 l-7.8125 0 l1.7188 -7.4023 l25.352 0 l-1.6602 7.4023 l-7.793 0 l-1.9141 8.5547 l1.7383 0 z M125.801 27.344 l-2.9297 12.734 l-9.8828 0 l2.9297 -12.734 l-1.9922 0 l3.8281 -16.484 l9.8633 0 l-3.7891 16.484 l1.9727 0 z M148.4569375 27.344 l1.9531 0 l-0.25391 1.1914 l-10.078 0 l-2.6563 11.543 l-9.8242 0 l2.9688 -12.734 l-1.9922 0 l3.8086 -16.484 l20.742 0 l-1.7188 7.4023 l-10.918 0 l-0.68359 2.8711 l10.059 0 z M180.0779375 25.683999999999997 c-0.15625 0.625 -0.33203 1.25 -0.56641 1.8945 l2.1289 0 c-2.4805 7.7539 -8.7891 13.379 -17.441 13.379 c-8.9258 0 -12.402 -5.625 -11.27 -13.379 l-2.0703 0 c0.078125 -0.64453 0.17578 -1.2695 0.3125 -1.8945 c2.0703 -8.9258 8.5352 -15.313 17.93 -15.313 c9.1992 0 12.988 6.4453 10.977 15.313 z M171.5039375 27.578 l-2.1094 0 c0.19531 -0.64453 0.39063 -1.2695 0.52734 -1.9336 c2.4805 -10.723 -6.1719 -10.41 -8.5938 0.039063 c-0.13672 0.68359 -0.23438 1.3086 -0.33203 1.8945 l2.1094 0 c-1.0156 8.1641 5.6445 7.9883 8.3984 0 z M164.7659375 8.300999999999998 l2.5586 -9.0625 l6.543 0 l-4.5898 9.0625 l-4.5117 0 z M184.62889375 27.266 l-1.7969 0 l3.75 -16.367 l9.8047 0 l-3.7891 16.367 l1.8164 0 l-1.2891 5.332 l10.84 0 l-1.6797 7.3828 l-20.605 0 z M216.7775625 27.344 l-2.9297 12.734 l-9.8828 0 l2.9297 -12.734 l-1.9922 0 l3.8281 -16.484 l9.8633 0 l-3.7891 16.484 l1.9727 0 z M247.3045 25.683999999999997 c-0.15625 0.625 -0.33203 1.25 -0.56641 1.8945 l2.1289 0 c-2.4805 7.7539 -8.7891 13.379 -17.441 13.379 c-8.9258 0 -12.402 -5.625 -11.27 -13.379 l-2.0703 0 c0.078125 -0.64453 0.17578 -1.2695 0.3125 -1.8945 c2.0703 -8.9258 8.5352 -15.313 17.93 -15.313 c9.1992 0 12.988 6.4453 10.977 15.313 z M238.7305 27.578 l-2.1094 0 c0.19531 -0.64453 0.39063 -1.2695 0.52734 -1.9336 c2.4805 -10.723 -6.1719 -10.41 -8.5938 0.039063 c-0.13672 0.68359 -0.23438 1.3086 -0.33203 1.8945 l2.1094 0 c-1.0156 8.1641 5.6445 7.9883 8.3984 0 z"></path></g></svg>